<svg xmlns="http://www.w3.org/2000/svg" viewBox="0 0 64 64" width="64" height="64">
  <!-- Background circle -->
  <circle cx="32" cy="32" r="32" fill="#ffffff"/>
  
  <!-- Logo Group -->
  <g transform="translate(8, 12)">
    <!-- First M (Black) -->
    <path d="M0 0 L0 40 L6 40 L6 12 L12 26 L18 12 L18 40 L24 40 L24 0 L18 0 L12 20 L6 0 Z" fill="#000000"/>
    
    <!-- Second M (Orange) -->
    <path d="M26 0 L26 40 L32 40 L32 12 L38 26 L44 12 L44 40 L50 40 L50 0 L44 0 L38 20 L32 0 Z" fill="#f76300"/>
  </g>
  
  <!-- W (Black) - positioned below -->
  <g transform="translate(16, 32)">
    <path d="M0 0 L0 20 L4 20 L6 6 L8 16 L12 16 L14 6 L16 20 L20 20 L20 0 L16 0 L14 12 L12 4 L8 4 L6 12 L4 0 Z" fill="#000000"/>
  </g>
</svg>